<svg width="518" height="455" viewBox="0 0 518 455" fill="none" xmlns="http://www.w3.org/2000/svg">
<path d="M451.287 438.534V393.445C451.287 393.445 468.86 425.411 451.287 438.534Z" fill="#F1F1F1"/>
<path d="M452.373 438.526L419.155 408.033C419.155 408.033 454.589 416.707 452.373 438.526Z" fill="#F1F1F1"/>
<path d="M66.3608 438.534V393.445C66.3608 393.445 48.7877 425.411 66.3608 438.534Z" fill="#F1F1F1"/>
<path d="M65.2752 438.526L98.4931 408.033C98.4931 408.033 63.0589 416.707 65.2752 438.526Z" fill="#F1F1F1"/>
<path d="M368.245 104.121H365.837V38.1703C365.837 33.1577 364.85 28.1942 362.932 23.5632C361.013 18.9321 358.201 14.7243 354.657 11.1798C351.112 7.63539 346.904 4.82379 342.272 2.90555C337.641 0.987311 332.677 4.09271e-06 327.664 0H187.928C182.915 -1.06407e-05 177.952 0.987282 173.32 2.90551C168.689 4.82373 164.481 7.63532 160.936 11.1797C157.391 14.7242 154.579 18.932 152.661 23.5631C150.743 28.1941 149.755 33.1576 149.755 38.1702V399.979C149.755 410.102 153.777 419.811 160.936 426.969C168.095 434.128 177.804 438.149 187.928 438.149H327.664C337.788 438.149 347.498 434.128 354.656 426.969C361.815 419.811 365.837 410.102 365.837 399.979V151.065H368.245V104.121Z" fill="#3F3D56"/>
<path d="M329.204 9.93068H310.964C311.803 11.987 312.123 14.2181 311.896 16.4273C311.67 18.6365 310.903 20.7561 309.665 22.5994C308.426 24.4426 306.753 25.9529 304.792 26.9973C302.832 28.0416 300.645 28.5879 298.424 28.5881H218.372C216.151 28.588 213.964 28.0416 212.004 26.9973C210.044 25.9529 208.37 24.4426 207.132 22.5994C205.893 20.7561 205.126 18.6365 204.9 16.4273C204.673 14.2181 204.993 11.987 205.832 9.93066H188.796C181.235 9.93066 173.984 12.9339 168.638 18.2796C163.292 23.6253 160.288 30.8757 160.288 38.4357V399.714C160.288 403.457 161.026 407.164 162.458 410.622C163.891 414.08 165.991 417.223 168.638 419.87C171.285 422.517 174.428 424.616 177.886 426.049C181.345 427.481 185.052 428.219 188.796 428.219H329.204C332.948 428.219 336.655 427.481 340.114 426.049C343.572 424.616 346.715 422.517 349.362 419.87C352.009 417.223 354.109 414.081 355.542 410.622C356.974 407.164 357.712 403.457 357.712 399.714V38.4358C357.712 34.6924 356.974 30.9857 355.542 27.5273C354.109 24.0689 352.009 20.9266 349.362 18.2796C346.715 15.6327 343.572 13.533 340.114 12.1005C336.655 10.668 332.948 9.93068 329.204 9.93068Z" fill="white"/>
<path d="M325.687 422.016H192.313C176.988 422.016 164.52 410.888 164.52 397.211V379.253C164.52 368.352 174.449 359.483 186.654 359.483H331.346C343.551 359.483 353.48 368.352 353.48 379.253V397.211C353.48 410.888 341.012 422.016 325.687 422.016Z" fill="#E5E5E5"/>
<path d="M206.333 120.2H176.582C176.05 120.199 175.539 119.987 175.162 119.61C174.785 119.233 174.573 118.722 174.572 118.19V88.4412C174.573 87.9083 174.785 87.3974 175.162 87.0206C175.539 86.6438 176.05 86.4318 176.582 86.4312H206.333C206.866 86.4318 207.377 86.6438 207.754 87.0206C208.131 87.3974 208.343 87.9083 208.343 88.4412V118.19C208.343 118.722 208.131 119.233 207.754 119.61C207.377 119.987 206.866 120.199 206.333 120.2Z" fill="#8731AF"/>
<path d="M251.361 120.2H221.611C221.078 120.199 220.567 119.987 220.19 119.61C219.813 119.233 219.601 118.722 219.6 118.19V88.4412C219.601 87.9083 219.813 87.3974 220.19 87.0206C220.567 86.6437 221.078 86.4318 221.611 86.4312H251.361C251.894 86.4318 252.405 86.6437 252.782 87.0206C253.159 87.3974 253.371 87.9083 253.372 88.4412V118.19C253.371 118.722 253.159 119.233 252.782 119.61C252.405 119.987 251.894 120.199 251.361 120.2Z" fill="#E5E5E5"/>
<path d="M296.389 120.2H266.639C266.106 120.199 265.595 119.987 265.218 119.61C264.841 119.233 264.629 118.722 264.629 118.19V88.4412C264.629 87.9083 264.841 87.3974 265.218 87.0206C265.595 86.6437 266.106 86.4318 266.639 86.4312H296.389C296.922 86.4318 297.433 86.6437 297.81 87.0206C298.187 87.3974 298.399 87.9083 298.4 88.4412V118.19C298.399 118.722 298.187 119.233 297.81 119.61C297.433 119.987 296.922 120.199 296.389 120.2Z" fill="#E5E5E5"/>
<path d="M341.418 120.2H311.667C311.134 120.199 310.623 119.987 310.246 119.61C309.869 119.233 309.657 118.722 309.657 118.19V88.4412C309.657 87.9083 309.869 87.3974 310.246 87.0206C310.623 86.6438 311.134 86.4318 311.667 86.4312H341.418C341.95 86.4318 342.461 86.6438 342.838 87.0206C343.215 87.3974 343.427 87.9083 343.428 88.4412V118.19C343.427 118.722 343.215 119.233 342.838 119.61C342.461 119.987 341.95 120.199 341.418 120.2Z" fill="#E5E5E5"/>
<path d="M206.227 175.274H176.476C175.943 175.274 175.432 175.062 175.055 174.685C174.678 174.308 174.466 173.797 174.466 173.264V143.516C174.466 142.983 174.678 142.472 175.055 142.095C175.432 141.718 175.943 141.506 176.476 141.506H206.227C206.76 141.506 207.271 141.718 207.647 142.095C208.024 142.472 208.236 142.983 208.237 143.516V173.264C208.236 173.797 208.024 174.308 207.647 174.685C207.271 175.062 206.76 175.274 206.227 175.274Z" fill="#E5E5E5"/>
<path d="M251.255 175.274H221.504C220.971 175.274 220.46 175.062 220.083 174.685C219.707 174.308 219.495 173.797 219.494 173.264V143.516C219.495 142.983 219.707 142.472 220.083 142.095C220.46 141.718 220.971 141.506 221.504 141.506H251.255C251.788 141.506 252.299 141.718 252.676 142.095C253.052 142.472 253.264 142.983 253.265 143.516V173.264C253.264 173.797 253.052 174.308 252.676 174.685C252.299 175.062 251.788 175.274 251.255 175.274Z" fill="#E5E5E5"/>
<path d="M296.283 175.274H266.532C265.999 175.274 265.488 175.062 265.112 174.685C264.735 174.308 264.523 173.797 264.522 173.264V143.516C264.523 142.983 264.735 142.472 265.112 142.095C265.488 141.718 265.999 141.506 266.532 141.506H296.283C296.816 141.506 297.327 141.718 297.704 142.095C298.081 142.472 298.293 142.983 298.293 143.516V173.264C298.293 173.797 298.081 174.308 297.704 174.685C297.327 175.062 296.816 175.274 296.283 175.274Z" fill="#8731AF"/>
<path d="M341.311 175.274H311.56C311.027 175.274 310.517 175.062 310.14 174.685C309.763 174.308 309.551 173.797 309.55 173.264V143.516C309.551 142.983 309.763 142.472 310.14 142.095C310.517 141.718 311.027 141.506 311.56 141.506H341.311C341.844 141.506 342.355 141.718 342.732 142.095C343.109 142.472 343.321 142.983 343.321 143.516V173.264C343.321 173.797 343.109 174.308 342.732 174.685C342.355 175.062 341.844 175.274 341.311 175.274Z" fill="#8731AF"/>
<path d="M206.12 230.349H176.37C175.837 230.348 175.326 230.136 174.949 229.76C174.572 229.383 174.36 228.872 174.359 228.339V198.591C174.36 198.058 174.572 197.547 174.949 197.17C175.326 196.793 175.837 196.581 176.37 196.581H206.12C206.653 196.581 207.164 196.793 207.541 197.17C207.918 197.547 208.13 198.058 208.131 198.591V228.339C208.13 228.872 207.918 229.383 207.541 229.76C207.164 230.136 206.653 230.348 206.12 230.349Z" fill="#E5E5E5"/>
<path d="M251.148 230.349H221.398C220.865 230.348 220.354 230.136 219.977 229.76C219.6 229.383 219.388 228.872 219.388 228.339V198.591C219.388 198.058 219.6 197.547 219.977 197.17C220.354 196.793 220.865 196.581 221.398 196.581H251.148C251.681 196.581 252.192 196.793 252.569 197.17C252.946 197.547 253.158 198.058 253.159 198.591V228.339C253.158 228.872 252.946 229.383 252.569 229.76C252.192 230.136 251.681 230.348 251.148 230.349Z" fill="#E5E5E5"/>
<path d="M296.177 230.349H266.426C265.893 230.348 265.382 230.136 265.005 229.76C264.628 229.383 264.416 228.872 264.416 228.339V198.591C264.416 198.058 264.628 197.547 265.005 197.17C265.382 196.793 265.893 196.581 266.426 196.581H296.177C296.71 196.581 297.221 196.793 297.597 197.17C297.974 197.547 298.186 198.058 298.187 198.591V228.339C298.186 228.872 297.974 229.383 297.597 229.76C297.221 230.136 296.71 230.348 296.177 230.349Z" fill="#E5E5E5"/>
<path d="M341.205 230.349H311.454C310.921 230.348 310.41 230.136 310.033 229.76C309.656 229.383 309.444 228.872 309.444 228.339V198.591C309.444 198.058 309.656 197.547 310.033 197.17C310.41 196.793 310.921 196.581 311.454 196.581H341.205C341.738 196.581 342.249 196.793 342.625 197.17C343.002 197.547 343.214 198.058 343.215 198.591V228.339C343.214 228.872 343.002 229.383 342.625 229.76C342.249 230.136 341.738 230.348 341.205 230.349Z" fill="#E5E5E5"/>
<path d="M206.014 285.424H176.263C175.73 285.423 175.219 285.211 174.843 284.834C174.466 284.457 174.254 283.947 174.253 283.414V253.665C174.254 253.132 174.466 252.622 174.843 252.245C175.219 251.868 175.73 251.656 176.263 251.655H206.014C206.547 251.656 207.058 251.868 207.435 252.245C207.812 252.622 208.024 253.132 208.024 253.665V283.414C208.024 283.947 207.812 284.457 207.435 284.834C207.058 285.211 206.547 285.423 206.014 285.424Z" fill="#E5E5E5"/>
<path d="M251.042 285.424H221.291C220.758 285.423 220.247 285.211 219.871 284.834C219.494 284.457 219.282 283.947 219.281 283.414V253.665C219.282 253.132 219.494 252.622 219.871 252.245C220.247 251.868 220.758 251.656 221.291 251.655H251.042C251.575 251.656 252.086 251.868 252.463 252.245C252.84 252.622 253.052 253.132 253.052 253.665V283.414C253.052 283.947 252.84 284.457 252.463 284.834C252.086 285.211 251.575 285.423 251.042 285.424Z" fill="#E5E5E5"/>
<path d="M296.07 285.424H266.32C265.787 285.423 265.276 285.211 264.899 284.834C264.522 284.457 264.31 283.947 264.309 283.414V253.665C264.31 253.132 264.522 252.622 264.899 252.245C265.276 251.868 265.787 251.656 266.32 251.655H296.07C296.603 251.656 297.114 251.868 297.491 252.245C297.868 252.622 298.08 253.132 298.08 253.665V283.414C298.08 283.947 297.868 284.457 297.491 284.834C297.114 285.211 296.603 285.423 296.07 285.424Z" fill="#E5E5E5"/>
<path d="M341.098 285.424H311.348C310.815 285.423 310.304 285.211 309.927 284.834C309.55 284.457 309.338 283.947 309.337 283.414V253.665C309.338 253.132 309.55 252.622 309.927 252.245C310.304 251.868 310.815 251.656 311.348 251.655H341.098C341.631 251.656 342.142 251.868 342.519 252.245C342.896 252.622 343.108 253.132 343.109 253.665V283.414C343.108 283.947 342.896 284.457 342.519 284.834C342.142 285.211 341.631 285.423 341.098 285.424Z" fill="#E5E5E5"/>
<path d="M206.333 408.437H176.582C176.05 408.437 175.539 408.225 175.162 407.848C174.785 407.471 174.573 406.96 174.572 406.427V376.679C174.573 376.146 174.785 375.635 175.162 375.258C175.539 374.882 176.05 374.67 176.582 374.669H206.333C206.866 374.67 207.377 374.882 207.754 375.258C208.131 375.635 208.343 376.146 208.343 376.679V406.427C208.343 406.96 208.131 407.471 207.754 407.848C207.377 408.225 206.866 408.437 206.333 408.437Z" fill="white"/>
<path d="M251.361 408.437H221.611C221.078 408.437 220.567 408.225 220.19 407.848C219.813 407.471 219.601 406.96 219.6 406.427V376.679C219.601 376.146 219.813 375.635 220.19 375.258C220.567 374.882 221.078 374.67 221.611 374.669H251.361C251.894 374.67 252.405 374.882 252.782 375.258C253.159 375.635 253.371 376.146 253.372 376.679V406.427C253.371 406.96 253.159 407.471 252.782 407.848C252.405 408.225 251.894 408.437 251.361 408.437Z" fill="white"/>
<path d="M296.389 408.437H266.639C266.106 408.437 265.595 408.225 265.218 407.848C264.841 407.471 264.629 406.96 264.629 406.427V376.679C264.629 376.146 264.841 375.635 265.218 375.258C265.595 374.882 266.106 374.67 266.639 374.669H296.389C296.922 374.67 297.433 374.882 297.81 375.258C298.187 375.635 298.399 376.146 298.4 376.679V406.427C298.399 406.96 298.187 407.471 297.81 407.848C297.433 408.225 296.922 408.437 296.389 408.437Z" fill="white"/>
<path d="M341.418 408.437H311.667C311.134 408.437 310.623 408.225 310.246 407.848C309.869 407.471 309.657 406.96 309.657 406.427V376.679C309.657 376.146 309.869 375.635 310.246 375.258C310.623 374.882 311.134 374.67 311.667 374.669H341.418C341.95 374.67 342.461 374.882 342.838 375.258C343.215 375.635 343.427 376.146 343.428 376.679V406.427C343.427 406.96 343.215 407.471 342.838 407.848C342.461 408.225 341.95 408.437 341.418 408.437Z" fill="white"/>
<path d="M244.42 345.725C246.641 345.725 248.441 343.925 248.441 341.705C248.441 339.484 246.641 337.685 244.42 337.685C242.2 337.685 240.4 339.484 240.4 341.705C240.4 343.925 242.2 345.725 244.42 345.725Z" fill="#E5E5E5"/>
<path d="M258.894 345.725C261.114 345.725 262.914 343.925 262.914 341.705C262.914 339.484 261.114 337.685 258.894 337.685C256.673 337.685 254.873 339.484 254.873 341.705C254.873 343.925 256.673 345.725 258.894 345.725Z" fill="#E5E5E5"/>
<path d="M273.367 345.725C275.587 345.725 277.387 343.925 277.387 341.705C277.387 339.484 275.587 337.685 273.367 337.685C271.147 337.685 269.347 339.484 269.347 341.705C269.347 343.925 271.147 345.725 273.367 345.725Z" fill="#E5E5E5"/>
<path d="M517.377 438.801H0.623345C0.458024 438.801 0.299473 438.735 0.182573 438.619C0.0656732 438.502 0 438.343 0 438.178C0 438.012 0.0656732 437.854 0.182573 437.737C0.299473 437.62 0.458024 437.554 0.623345 437.554H517.377C517.542 437.554 517.701 437.62 517.817 437.737C517.934 437.854 518 438.012 518 438.178C518 438.343 517.934 438.502 517.817 438.619C517.701 438.735 517.542 438.801 517.377 438.801Z" fill="#CBCBCB"/>
<path d="M203.438 316.075C204.279 315.234 204.925 314.219 205.331 313.102C205.738 311.985 205.894 310.792 205.79 309.607C205.685 308.423 205.322 307.275 204.726 306.246C204.13 305.218 203.316 304.332 202.341 303.651L210.192 275.834L195.877 280.386L190.616 306.104C189.582 307.818 189.212 309.852 189.578 311.821C189.943 313.789 191.017 315.555 192.598 316.784C194.178 318.013 196.155 318.62 198.152 318.489C200.15 318.358 202.031 317.499 203.438 316.075Z" fill="#FFB7B7"/>
<path d="M207.508 299.024C207.252 299.073 206.992 299.095 206.732 299.09L193 298.815C192.483 298.805 191.974 298.684 191.507 298.462C191.041 298.24 190.627 297.921 190.293 297.526C189.959 297.131 189.713 296.67 189.572 296.173C189.43 295.676 189.396 295.155 189.472 294.643L203.402 200.531C203.818 197.809 205.194 195.325 207.281 193.529C209.368 191.732 212.029 190.741 214.783 190.735C216.521 190.739 218.237 191.139 219.799 191.903C221.36 192.667 222.728 193.776 223.799 195.147C224.869 196.517 225.614 198.112 225.978 199.813C226.341 201.513 226.314 203.274 225.897 204.962L216.023 244.951L210.423 295.849C210.342 296.621 210.015 297.347 209.49 297.918C208.965 298.49 208.27 298.878 207.508 299.024Z" fill="#3F3D56"/>
<path d="M213.25 447.593H220.892L224.528 418.118L213.248 418.119L213.25 447.593Z" fill="#FFB7B7"/>
<path d="M211.3 445.098L226.35 445.097H226.351C228.895 445.098 231.334 446.108 233.133 447.906C234.931 449.705 235.942 452.144 235.942 454.688V454.999L211.301 455L211.3 445.098Z" fill="#2F2E41"/>
<path d="M245.836 445.111L253.43 445.962L260.329 417.077L249.12 415.82L245.836 445.111Z" fill="#FFB7B7"/>
<path d="M244.177 442.414L259.133 444.091C261.661 444.374 263.973 445.65 265.56 447.638C267.147 449.626 267.88 452.163 267.596 454.69L267.561 455L243.074 452.255L244.177 442.414Z" fill="#2F2E41"/>
<path d="M206.077 283.572C206.077 283.572 195.6 306.764 204.852 321.828L210.364 439.113H223.02L235.298 344.371L257.115 372.42L243.823 437.883L259.302 438.752L280.802 372.42C280.802 372.42 264.285 299.277 258.83 297.515L255.245 280.795L206.077 283.572Z" fill="#2F2E41"/>
<path d="M201.414 303.933C201.414 303.933 191.976 314.765 216.909 318.505C241.843 322.244 268.024 316.635 268.647 309.155C269.27 301.676 201.414 303.933 201.414 303.933Z" fill="#CBCBCB"/>
<path d="M326.405 169.57C326.367 170.627 326.097 171.663 325.614 172.605C325.132 173.546 324.449 174.371 323.613 175.02C322.778 175.669 321.81 176.127 320.779 176.362C319.747 176.597 318.676 176.603 317.642 176.379L308.217 189.97L298.56 186.257L312.14 167.251C312.631 165.539 313.733 164.066 315.237 163.112C316.742 162.158 318.544 161.789 320.302 162.075C322.061 162.36 323.653 163.281 324.778 164.663C325.903 166.044 326.482 167.79 326.405 169.57Z" fill="#FFB7B7"/>
<path d="M246.697 187.055L233.372 181.028L216.299 182.248C216.299 182.248 195.716 206.311 203.819 229.373L198.832 309.778C230.623 318.505 245.074 302.138 268.024 309.155L260.935 219.794L246.697 187.055Z" fill="#3F3D56"/>
<path d="M237.791 192.91L246.697 187.055C246.697 187.055 259.069 185.186 264.014 189.983C264.014 189.983 280.798 191.388 284.852 195.577L289.315 196.583L304.143 177.385L313.216 182.314L300.126 217.842L260.935 219.794L237.791 192.91Z" fill="#3F3D56"/>
<path d="M240.865 174.266C251.058 168.694 254.804 155.914 249.232 145.721C243.66 135.529 230.879 131.783 220.686 137.355C210.492 142.926 206.746 155.706 212.318 165.899C217.89 176.092 230.671 179.838 240.865 174.266Z" fill="#FFB7B7"/>
<path d="M212.581 139.366C216.336 132.614 221.028 128.241 228.753 128.399C236.478 128.557 243.16 128.252 246.636 135.152C247.555 133.432 248.015 131.505 247.972 129.555C249.021 130.236 249.849 131.21 250.351 132.356C250.854 133.502 251.011 134.769 250.801 136.003C251.477 135.607 252.043 135.048 252.447 134.376C252.851 133.705 253.08 132.943 253.113 132.16C255.691 133.018 256.361 136.651 255.057 139.035C253.752 141.418 251.194 142.796 248.739 143.961C246.284 145.126 247.417 151.288 245.815 153.482C244.696 155.013 244.184 156.889 243.43 158.629C243.399 158.698 243.345 158.754 243.278 158.789C241.549 159.752 240.458 161.474 240.764 163.429C240.8 163.576 240.791 163.73 240.739 163.871C238.551 167.993 236.189 172.306 232.223 174.765C229.041 176.687 225.229 177.276 221.614 176.405C217.561 175.436 214.056 172.748 211.529 169.434C209.002 166.119 207.376 162.202 206.155 158.217C205.071 154.682 204.283 150.903 205.142 147.307C206.001 143.71 208.912 140.38 212.599 140.103" fill="#2F2E41"/>
</svg>
