<svg width="765" height="320" viewBox="0 0 765 320" fill="none" xmlns="http://www.w3.org/2000/svg">
<g clip-path="url(#clip0_7_132)">
<path d="M576.458 137.627V78.0382C576.458 72.0966 581.297 67.2632 587.244 67.2632H626.267C632.215 67.2632 637.054 72.0966 637.054 78.0382V137.627C637.054 143.568 632.215 148.402 626.267 148.402H587.244C581.297 148.402 576.458 143.568 576.458 137.627Z" fill="#8731AF"/>
<path d="M596.442 93.0215H617.07V87.8698H596.442V93.0215Z" fill="#3F3D56"/>
<path d="M601.599 84.0059H611.913V67.263H601.599V84.0059Z" fill="#3F3D56"/>
<path d="M601.599 148.402H611.913V131.659H601.599V148.402Z" fill="#3F3D56"/>
<path d="M548.738 140.035H489.087C483.139 140.035 478.301 135.202 478.301 129.26V90.2779C478.301 84.3364 483.139 79.5029 489.087 79.5029H548.738C554.686 79.5029 559.525 84.3364 559.525 90.2779V129.26C559.525 135.202 554.686 140.035 548.738 140.035Z" fill="#8731AF"/>
<path d="M530.516 87.8745H509.888V93.0262H530.516V87.8745Z" fill="#3F3D56"/>
<path d="M495.061 114.921V104.617H478.301V114.921H495.061Z" fill="#3F3D56"/>
<path d="M559.525 114.921V104.617H542.764V114.921H559.525Z" fill="#3F3D56"/>
<path d="M64.858 251.464L54.8998 193.435C50.4748 167.65 69.5794 143.789 95.7331 142.436L237.697 135.091L271.578 79.3087C276.07 71.9135 284.101 67.3975 292.76 67.3975H394.764C402.782 67.3975 409.557 73.3371 410.598 81.2791L413.188 125.914L667.497 126.674L699.489 231.994L669.794 230.547L671.317 262.493L632.485 264.014L619.541 227.45C617.103 220.565 606.422 212.802 595.32 206.307C570.432 191.746 538.457 196.42 519.623 218.24C515.179 223.388 512.073 228.751 511.205 233.78L505.331 267.817L220.565 263.253L183.244 211.102C172.218 199.115 120.167 194.712 115.479 211.102L87.3194 252.605L64.858 251.464Z" fill="#E6E6E6"/>
<path d="M374.366 101.34L382.744 140.796L276.148 143.077L298.661 94.7902C300.704 90.4097 305.187 87.6901 310.02 87.9L361.1 90.1186C367.566 90.3994 373.023 95.0152 374.366 101.34Z" fill="white"/>
<path d="M261.681 140.035L283 85.2716L277.419 79.6958L242.646 132.429L249.711 143.078L261.681 140.035Z" fill="white"/>
<path d="M567.004 318.017C594.758 318.017 617.257 295.541 617.257 267.817C617.257 240.092 594.758 217.617 567.004 217.617C539.251 217.617 516.752 240.092 516.752 267.817C516.752 295.541 539.251 318.017 567.004 318.017Z" fill="#3F3D56"/>
<path d="M532.361 267.817C532.361 248.734 547.902 233.209 567.005 233.209C586.107 233.209 601.648 248.734 601.648 267.817C601.648 286.899 586.107 302.424 567.005 302.424C547.902 302.424 532.361 286.899 532.361 267.817ZM533.122 267.817C533.122 286.48 548.321 301.663 567.005 301.663C585.688 301.663 600.887 286.48 600.887 267.817C600.887 249.153 585.688 233.97 567.005 233.97C548.321 233.97 533.122 249.153 533.122 267.817Z" fill="white"/>
<path d="M537.31 267.817C537.31 284.2 550.604 297.481 567.004 297.481C583.404 297.481 596.699 284.2 596.699 267.817C596.699 251.434 583.404 238.153 567.004 238.153C550.604 238.153 537.31 251.434 537.31 267.817ZM586.307 260.714L581.046 264.139L579.024 261.041L586.307 260.714ZM578.297 278.135L579.698 274.712L584.11 280.509L578.297 278.135ZM564.825 289.874L568.527 283.601V289.874H564.825ZM564.825 253.554L568.527 247.281V253.554H564.825ZM548.376 280.509L552.788 274.712L554.189 278.135L548.376 280.509ZM546.179 260.714L553.462 261.041L551.44 264.139L546.179 260.714Z" fill="#E6E6E6"/>
<path d="M145.186 318.017C172.94 318.017 195.439 295.541 195.439 267.817C195.439 240.092 172.94 217.617 145.186 217.617C117.432 217.617 94.9335 240.092 94.9335 267.817C94.9335 295.541 117.432 318.017 145.186 318.017Z" fill="#3F3D56"/>
<path d="M110.542 267.817C110.542 248.734 126.083 233.209 145.186 233.209C164.289 233.209 179.83 248.734 179.83 267.817C179.83 286.899 164.289 302.424 145.186 302.424C126.083 302.424 110.542 286.899 110.542 267.817ZM111.304 267.817C111.304 286.48 126.503 301.663 145.186 301.663C163.869 301.663 179.069 286.48 179.069 267.817C179.069 249.153 163.869 233.97 145.186 233.97C126.503 233.97 111.304 249.153 111.304 267.817Z" fill="white"/>
<path d="M115.491 267.817C115.491 284.2 128.786 297.481 145.186 297.481C161.586 297.481 174.881 284.2 174.881 267.817C174.881 251.434 161.586 238.153 145.186 238.153C128.786 238.153 115.491 251.434 115.491 267.817ZM164.489 260.714L159.228 264.139L157.206 261.041L164.489 260.714ZM156.479 278.135L157.88 274.712L162.292 280.509L156.479 278.135ZM143.007 289.874L146.709 283.601V289.874H143.007ZM143.007 253.554L146.709 247.281V253.554H143.007ZM126.558 280.509L130.969 274.712L132.371 278.135L126.558 280.509ZM124.361 260.714L131.644 261.041L129.622 264.139L124.361 260.714Z" fill="#E6E6E6"/>
<path d="M354.953 160.952H383.887V154.867H354.953V160.952Z" fill="#3F3D56"/>
<path d="M762.766 280.4C762.496 279.576 760.452 279.939 760.256 279.202C760.061 278.467 762.022 277.851 763.526 275.78C763.798 275.407 765.507 273.054 764.851 272.064C763.609 270.188 754.962 274.86 752.887 272.239C752.431 271.663 752.244 270.676 750.887 268.837C750.347 268.106 750.001 267.753 749.587 267.763C749 267.778 748.79 268.512 747.867 269.841C746.483 271.834 745.983 271.584 745.072 273.217C744.395 274.43 744.315 275.204 743.827 275.25C743.136 275.315 742.851 273.805 742.007 273.747C741.146 273.687 740.284 275.179 739.857 276.344C739.055 278.531 739.552 280.202 739.662 281.868C739.781 283.678 739.5 286.328 737.531 289.729L718.959 319.288C722.948 313.262 734.27 296.83 738.831 290.803C740.148 289.063 741.563 287.316 743.741 286.988C745.838 286.671 748.39 287.707 751.951 287.647C752.367 287.64 753.525 287.606 753.806 286.993C754.039 286.486 753.461 286.046 753.671 285.569C753.953 284.931 755.222 285.205 756.951 284.78C758.17 284.481 758.999 283.987 759.711 283.562C759.926 283.434 763.125 281.498 762.766 280.4Z" fill="#F2F2F2"/>
<path d="M714.123 287.302C713.64 287.196 713.229 288.303 712.81 288.186C712.392 288.07 712.656 286.931 712.072 285.596C711.967 285.355 711.304 283.838 710.629 283.874C709.349 283.942 709.149 289.53 707.262 289.791C706.848 289.848 706.309 289.655 705.014 289.79C704.499 289.843 704.226 289.911 704.111 290.117C703.949 290.409 704.249 290.724 704.636 291.56C705.216 292.814 704.949 292.986 705.488 293.905C705.889 294.586 706.246 294.849 706.128 295.102C705.96 295.459 705.136 295.163 704.864 295.56C704.586 295.965 705.07 296.818 705.52 297.364C706.363 298.388 707.327 298.626 708.178 299.053C709.101 299.517 710.322 300.419 711.425 302.366L720.59 320C718.78 316.306 713.973 306.014 712.328 302.038C711.853 300.891 711.403 299.693 711.87 298.53C712.32 297.411 713.565 296.459 714.563 294.695C714.68 294.489 714.997 293.912 714.777 293.597C714.595 293.337 714.212 293.493 714.038 293.252C713.806 292.93 714.307 292.387 714.597 291.417C714.802 290.732 714.798 290.184 714.795 289.712C714.794 289.569 714.766 287.442 714.123 287.302Z" fill="#F2F2F2"/>
<path d="M723.266 291.604L723.554 288.947L723.73 288.781C724.548 288.009 725.059 287.191 725.251 286.35C725.281 286.216 725.305 286.081 725.329 285.943C725.425 285.397 725.544 284.718 726.069 284.012C726.364 283.619 727.142 282.731 727.944 283.041C728.161 283.123 728.307 283.263 728.409 283.412C728.434 283.386 728.461 283.36 728.489 283.332C728.835 282.996 729.078 282.872 729.311 282.753C729.491 282.662 729.676 282.568 729.99 282.317C730.128 282.207 730.238 282.109 730.331 282.025C730.613 281.774 730.973 281.48 731.466 281.597C731.989 281.739 732.169 282.238 732.288 282.568C732.5 283.157 732.566 283.561 732.609 283.83C732.625 283.928 732.643 284.038 732.656 284.074C732.771 284.362 734.208 284.437 734.749 284.468C735.965 284.534 737.017 284.591 737.27 285.423C737.451 286.017 737.073 286.666 736.113 287.402C735.814 287.631 735.515 287.789 735.254 287.907C735.414 288.059 735.542 288.264 735.55 288.545C735.567 289.208 734.886 289.717 733.525 290.06C733.187 290.147 732.732 290.261 732.137 290.232C731.857 290.218 731.611 290.175 731.402 290.135C731.371 290.254 731.313 290.378 731.21 290.496C730.907 290.842 730.418 290.93 729.754 290.735C729.021 290.531 728.442 290.253 727.931 290.009C727.484 289.797 727.099 289.615 726.776 289.566C726.176 289.482 725.616 289.852 724.945 290.345L723.266 291.604Z" fill="#F2F2F2"/>
<path d="M728.059 276.472L725.414 276.868L725.207 276.739C724.253 276.145 723.332 275.859 722.468 275.887C722.331 275.891 722.194 275.903 722.054 275.914C721.501 275.96 720.813 276.018 719.997 275.689C719.542 275.504 718.485 274.977 718.581 274.123C718.605 273.893 718.704 273.716 718.822 273.58C718.79 273.562 718.759 273.544 718.725 273.524C718.311 273.274 718.13 273.071 717.956 272.875C717.822 272.725 717.684 272.57 717.361 272.33C717.22 272.225 717.096 272.143 716.992 272.075C716.678 271.866 716.301 271.593 716.289 271.086C716.295 270.545 716.732 270.245 717.021 270.046C717.537 269.692 717.913 269.526 718.162 269.416C718.253 269.376 718.355 269.33 718.386 269.308C718.636 269.124 718.344 267.717 718.237 267.186C717.992 265.995 717.781 264.964 718.522 264.508C719.052 264.182 719.776 264.383 720.732 265.124C721.03 265.355 721.259 265.604 721.439 265.826C721.545 265.632 721.712 265.457 721.981 265.378C722.619 265.193 723.285 265.722 723.962 266.95C724.132 267.255 724.357 267.666 724.481 268.248C724.538 268.522 724.559 268.771 724.573 268.983C724.697 268.983 724.831 269.007 724.971 269.077C725.383 269.282 725.593 269.732 725.572 270.423C725.56 271.183 725.439 271.813 725.332 272.369C725.24 272.854 725.161 273.272 725.195 273.597C725.266 274.199 725.767 274.646 726.415 275.168L728.059 276.472Z" fill="#F2F2F2"/>
<path d="M728.416 268.536L728.704 265.879L728.881 265.712C729.698 264.94 730.21 264.123 730.401 263.281C730.432 263.148 730.456 263.012 730.48 262.875C730.575 262.328 730.694 261.649 731.22 260.944C731.514 260.551 732.292 259.663 733.095 259.973C733.312 260.054 733.458 260.194 733.56 260.343C733.585 260.317 733.611 260.292 733.639 260.264C733.986 259.927 734.228 259.804 734.462 259.685C734.642 259.594 734.827 259.5 735.141 259.249C735.278 259.139 735.389 259.04 735.482 258.957C735.763 258.706 736.123 258.412 736.617 258.528C737.14 258.671 737.319 259.17 737.438 259.5C737.651 260.088 737.716 260.493 737.76 260.761C737.775 260.859 737.793 260.97 737.807 261.006C737.922 261.294 739.359 261.369 739.9 261.4C741.115 261.466 742.167 261.523 742.42 262.354C742.602 262.949 742.223 263.598 741.263 264.334C740.964 264.563 740.665 264.721 740.405 264.839C740.565 264.99 740.693 265.196 740.7 265.476C740.718 266.14 740.037 266.649 738.676 266.992C738.338 267.078 737.883 267.192 737.288 267.164C737.007 267.15 736.762 267.107 736.552 267.067C736.521 267.186 736.464 267.31 736.361 267.427C736.058 267.774 735.569 267.862 734.905 267.667C734.172 267.463 733.592 267.185 733.081 266.941C732.635 266.729 732.25 266.547 731.927 266.497C731.326 266.413 730.766 266.784 730.096 267.277L728.416 268.536Z" fill="#F2F2F2"/>
<path d="M719.838 319.439L719.37 318.977L718.72 318.909C718.723 318.848 718.718 318.705 718.714 318.482C718.689 317.26 718.611 313.54 719.13 307.825C719.492 303.835 720.097 299.786 720.928 295.786C721.76 291.781 722.624 288.801 723.318 286.405C723.842 284.598 724.371 282.885 724.887 281.216C726.264 276.756 727.564 272.543 728.369 267.738C728.55 266.665 728.924 264.433 728.158 261.797C727.713 260.269 726.952 258.83 725.894 257.522L726.918 256.697C728.085 258.142 728.926 259.735 729.42 261.432C730.27 264.354 729.862 266.787 729.666 267.956C728.846 272.846 727.533 277.099 726.142 281.602C725.629 283.265 725.102 284.971 724.581 286.771C723.893 289.144 723.037 292.098 722.215 296.052C721.393 300.004 720.796 304.004 720.438 307.943C719.926 313.586 720.003 317.25 720.028 318.454C720.041 319.097 720.044 319.231 719.838 319.439Z" fill="#F2F2F2"/>
<path d="M723.087 259.035C723.034 259.023 722.981 259.01 722.928 258.994C721.849 258.692 720.983 257.813 720.354 256.383C720.06 255.71 719.99 255.002 719.852 253.591C719.83 253.373 719.734 252.272 719.852 250.812C719.929 249.858 720.032 249.475 720.291 249.174C720.58 248.839 720.969 248.647 721.38 248.551C721.391 248.425 721.432 248.301 721.514 248.184C721.852 247.699 722.418 247.898 722.725 248.002C722.879 248.058 723.072 248.128 723.289 248.165C723.629 248.223 723.833 248.164 724.141 248.075C724.435 247.989 724.802 247.883 725.308 247.892C726.307 247.906 727.047 248.354 727.291 248.502C728.575 249.273 729.018 250.503 729.532 251.927C729.634 252.212 729.972 253.244 730.051 254.573C730.108 255.532 729.982 255.924 729.838 256.205C729.543 256.781 729.092 257.049 727.973 257.611C726.804 258.201 726.217 258.496 725.736 258.647C724.617 258.998 723.914 259.219 723.087 259.035Z" fill="#F2F2F2"/>
<path d="M0 318.298C0 318.8 0.704513 319.203 1.58183 319.203H756.721C757.598 319.203 758.302 318.8 758.302 318.298C758.302 317.796 757.598 317.393 756.721 317.393H1.58183C0.704513 317.393 0 317.796 0 318.298Z" fill="#CCCCCC"/>
<path d="M383.703 312.583L394.274 312.582L399.303 271.848L383.7 271.849L383.703 312.583Z" fill="#FFB6B6"/>
<path d="M419.923 312.344C420.252 312.898 420.426 314.685 420.426 315.329C420.426 317.309 418.819 318.913 416.838 318.913L384.098 318.913C382.746 318.913 381.65 317.819 381.65 316.468V315.107C381.65 315.107 380.031 311.014 383.365 305.97C383.365 305.97 387.509 309.92 393.702 303.733L395.528 300.429L408.747 310.086L416.074 310.987C417.677 311.184 419.099 310.957 419.923 312.344Z" fill="#2F2E41"/>
<path d="M336.204 312.583L346.776 312.582L351.805 271.848L336.202 271.849L336.204 312.583Z" fill="#FFB6B6"/>
<path d="M372.425 312.344C372.754 312.898 372.928 314.685 372.928 315.329C372.928 317.309 371.321 318.913 369.339 318.913L336.6 318.913C335.248 318.913 334.152 317.819 334.152 316.468V315.107C334.152 315.107 332.532 311.014 335.867 305.97C335.867 305.97 340.011 309.92 346.204 303.733L348.03 300.429L361.249 310.086L368.576 310.987C370.179 311.184 371.6 310.957 372.425 312.344Z" fill="#2F2E41"/>
<path d="M382.028 34.4368L384.035 53.1489L360.621 51.1441L364.635 33.7686L382.028 34.4368Z" fill="#FFB6B6"/>
<path opacity="0.1" d="M382.028 34.4368L384.035 53.1489L360.621 51.1441L364.635 33.7686L382.028 34.4368Z" fill="black"/>
<path d="M373.666 36.776C382.164 36.776 389.053 29.8943 389.053 21.4053C389.053 12.9163 382.164 6.03467 373.666 6.03467C365.168 6.03467 358.279 12.9163 358.279 21.4053C358.279 29.8943 365.168 36.776 373.666 36.776Z" fill="#FFB6B6"/>
<path d="M383.701 45.4635L409.457 60.5L401.018 101.266L406.781 156.065L402.767 290.391L378.014 287.718L374.669 173.441L355.269 291.728H331.232L335.199 164.085L347.241 109.953L339.882 51.144L362.293 44.127L383.701 45.4635Z" fill="#2F2E41"/>
<path d="M384.704 25.7491C384.704 25.7491 386.042 21.071 389.053 21.4052C392.063 21.7393 392.732 19.0662 392.063 17.7296C391.394 16.393 390.056 9.71012 390.056 9.71012C390.056 9.71012 390.725 5.03209 386.711 4.36381C382.697 3.69552 381.359 3.02723 380.69 1.69065C380.021 0.354072 369.987 -0.982502 366.642 1.02236C363.297 3.02723 360.621 6.87384 358.279 7.95783C355.938 9.04183 353.931 11.0467 355.269 14.3881C356.607 17.7296 358.547 24.2647 358.547 24.2647C358.547 24.2647 361.959 23.0759 362.628 25.0808C363.297 27.0856 360.621 24.4125 363.966 19.0662C367.311 13.7199 367.311 8.37354 372.662 10.3784C378.014 12.3833 384.035 11.715 383.366 15.7247C382.697 19.7345 384.704 25.7491 384.704 25.7491Z" fill="#2F2E41"/>
<path d="M396.175 144.077C392.955 147.483 392.104 151.903 394.274 153.95C396.444 155.997 400.813 154.895 404.034 151.487C405.339 150.144 406.303 148.507 406.846 146.715L420.307 132.112L413.312 125.948L400.785 140.998C399.024 141.642 397.443 142.698 396.175 144.077Z" fill="#FFB6B6"/>
<path d="M409.186 60.166L431.855 98.7463L435.213 116.359L413.384 144.036L404.148 132.294L415.063 116.359L397.432 85.3271L409.186 60.166Z" fill="#2F2E41"/>
<path d="M345.45 140.485V94.9967C345.45 88.0635 351.096 82.4233 358.037 82.4233H427.644C434.584 82.4233 440.231 88.0635 440.231 94.9967V140.485C440.231 147.418 434.584 153.058 427.644 153.058H358.037C351.096 153.058 345.45 147.418 345.45 140.485Z" fill="#8731AF"/>
<path d="M379.3 111.134H403.372V105.122H379.3V111.134Z" fill="#3F3D56"/>
<path d="M401.399 152.655V140.632H381.841V152.655H401.399Z" fill="#3F3D56"/>
<path d="M402.317 94.8491V82.8262H382.759V94.8491H402.317Z" fill="#3F3D56"/>
<path d="M352.495 135.389C355.715 138.795 356.566 143.216 354.396 145.263C352.225 147.309 347.856 146.207 344.636 142.8C343.33 141.456 342.366 139.82 341.824 138.028L328.363 123.425L335.357 117.26L347.885 132.311C349.646 132.955 351.226 134.01 352.495 135.389Z" fill="#FFB6B6"/>
<path d="M339.484 51.478L316.815 90.0583L313.457 107.671L335.286 135.348L344.521 123.606L333.607 107.671L351.238 76.6391L339.484 51.478Z" fill="#2F2E41"/>
<path d="M57.6123 235.441C68.9661 235.441 78.1702 227.438 78.1702 217.567C78.1702 207.695 68.9661 199.692 57.6123 199.692C46.2584 199.692 37.0543 207.695 37.0543 217.567C37.0543 227.438 46.2584 235.441 57.6123 235.441Z" fill="#E6E6E6"/>
</g>
<defs>
<clipPath id="clip0_7_132">
<rect width="765" height="320" fill="white"/>
</clipPath>
</defs>
</svg>
