<svg width="676" height="514" viewBox="0 0 676 514" fill="none" xmlns="http://www.w3.org/2000/svg">
<g clip-path="url(#clip0_7_102)">
<path d="M270.501 106.592H268.035V39.0762C268.035 33.9447 267.024 28.8633 265.059 24.1224C263.094 19.3815 260.214 15.0737 256.583 11.4452C252.952 7.81661 248.642 4.93828 243.898 2.97451C239.154 1.01075 234.07 4.34786e-06 228.935 0H85.8047C75.4346 -1.97567e-05 65.4893 4.1169 58.1565 11.4451C50.8237 18.7733 46.7042 28.7124 46.7042 39.0761V409.472C46.7042 414.603 47.7155 419.685 49.6805 424.426C51.6455 429.167 54.5256 433.474 58.1564 437.103C61.7872 440.731 66.0976 443.61 70.8415 445.574C75.5854 447.537 80.6699 448.548 85.8046 448.548H228.935C239.305 448.548 249.25 444.431 256.583 437.103C263.916 429.775 268.035 419.836 268.035 409.472V154.65H270.501V106.592Z" fill="#3F3D56"/>
<path d="M230.512 10.1663H211.829C212.688 12.2714 213.016 14.5554 212.784 16.8171C212.552 19.0788 211.767 21.2487 210.498 23.1357C209.229 25.0226 207.515 26.5688 205.508 27.6379C203.5 28.7071 201.26 29.2664 198.985 29.2665H116.988C114.713 29.2664 112.473 28.7071 110.465 27.638C108.457 26.5688 106.743 25.0227 105.474 23.1357C104.205 21.2487 103.42 19.0788 103.188 16.8171C102.956 14.5554 103.284 12.2714 104.143 10.1663H86.6931C82.8585 10.1663 79.0615 10.9211 75.5188 12.3876C71.9761 13.8541 68.7571 16.0036 66.0457 18.7134C63.3342 21.4231 61.1834 24.6401 59.7159 28.1806C58.2485 31.721 57.4932 35.5157 57.4932 39.3479V409.2C57.4932 413.032 58.2485 416.827 59.7159 420.367C61.1834 423.908 63.3342 427.125 66.0456 429.835C68.7571 432.544 71.9761 434.694 75.5188 436.16C79.0614 437.627 82.8585 438.382 86.693 438.382H230.512C234.347 438.382 238.144 437.627 241.687 436.16C245.229 434.694 248.448 432.544 251.16 429.835C253.871 427.125 256.022 423.908 257.489 420.367C258.957 416.827 259.712 413.032 259.712 409.2V39.3479C259.712 35.5157 258.957 31.721 257.489 28.1806C256.022 24.6401 253.871 21.4231 251.16 18.7134C248.448 16.0036 245.229 13.8541 241.687 12.3876C238.144 10.9211 234.347 10.1663 230.512 10.1663Z" fill="white"/>
<path d="M316.377 448.612H0.828213C0.608557 448.612 0.397897 448.525 0.242577 448.369C0.0872573 448.214 0 448.004 0 447.784C0 447.565 0.0872573 447.354 0.242577 447.199C0.397897 447.044 0.608557 446.957 0.828213 446.957H316.377C316.597 446.957 316.808 447.044 316.963 447.199C317.118 447.354 317.206 447.565 317.206 447.784C317.206 448.004 317.118 448.214 316.963 448.369C316.808 448.525 316.597 448.612 316.377 448.612Z" fill="#CBCBCB"/>
<path d="M158.603 286.118C197.229 286.118 228.542 254.825 228.542 216.222C228.542 177.62 197.229 146.326 158.603 146.326C119.976 146.326 88.6633 177.62 88.6633 216.222C88.6633 254.825 119.976 286.118 158.603 286.118Z" fill="#8731AF"/>
<path d="M151.672 242.885C150.099 242.888 148.567 242.379 147.308 241.436L147.23 241.378L130.793 228.812C130.032 228.229 129.393 227.501 128.913 226.671C128.433 225.841 128.122 224.925 127.996 223.975C127.871 223.024 127.933 222.058 128.181 221.132C128.429 220.206 128.857 219.338 129.441 218.577C130.024 217.816 130.752 217.178 131.583 216.698C132.413 216.219 133.33 215.907 134.281 215.782C135.232 215.656 136.198 215.719 137.125 215.967C138.052 216.214 138.92 216.642 139.682 217.225L150.328 225.384L175.486 192.584C176.069 191.823 176.797 191.185 177.627 190.705C178.457 190.226 179.374 189.915 180.324 189.789C181.275 189.664 182.241 189.727 183.167 189.974C184.093 190.222 184.962 190.649 185.723 191.232L185.725 191.234L185.569 191.451L185.729 191.234C187.264 192.413 188.269 194.153 188.522 196.071C188.775 197.989 188.256 199.93 187.08 201.466L157.488 240.03C156.804 240.919 155.924 241.638 154.916 242.131C153.908 242.625 152.801 242.88 151.679 242.877L151.672 242.885Z" fill="white"/>
<path d="M574.982 455.482C575.833 454.107 576.835 452.831 577.969 451.678C578.436 451.194 578.93 450.737 579.438 450.293C582.531 447.542 586.3 445.664 590.36 444.852C594.419 444.04 598.622 444.323 602.535 445.672C606.449 447.022 609.932 449.388 612.627 452.529C615.322 455.67 617.131 459.471 617.869 463.542C621.285 450.918 612.393 438.483 603.453 428.931C594.509 419.383 584.286 408.908 584.337 395.825C584.362 388.545 587.926 382.05 593.306 377.235C593.472 377.089 593.638 376.943 593.807 376.802C600.31 371.232 608.677 368.318 617.236 368.643C633.137 369.494 647.02 380.174 656.662 392.843C672.182 413.227 678.983 441.839 668.118 465.044C658.561 485.452 638.179 497.57 617.377 507.313C614.473 508.674 611.574 509.994 608.681 511.272C608.662 511.277 608.641 511.291 608.621 511.296C608.482 511.357 608.343 511.418 608.212 511.481C607.615 511.745 607.018 512.008 606.426 512.268L606.7 512.447L607.555 513.001C607.259 512.821 606.966 512.647 606.669 512.467C606.581 512.413 606.488 512.362 606.4 512.307C596.183 506.181 585.824 499.7 578.766 490.135C571.446 480.205 568.503 465.98 574.982 455.482Z" fill="#F1F1F1"/>
<path d="M643.147 432.419C645.409 437.562 646.909 443.008 647.599 448.584C648.142 453.556 647.938 458.581 646.994 463.493C644.965 473.586 640.54 483.045 634.092 491.074C629.227 497.169 623.611 502.625 617.377 507.313C614.473 508.674 611.574 509.993 608.681 511.272C608.662 511.277 608.641 511.291 608.621 511.296C608.482 511.357 608.343 511.418 608.212 511.481C607.615 511.744 607.018 512.008 606.426 512.268L606.7 512.447L607.556 513C607.259 512.821 606.966 512.647 606.669 512.467C606.581 512.413 606.488 512.362 606.4 512.307C608.648 504.448 608.979 496.164 607.364 488.15C605.749 480.136 602.235 472.626 597.118 466.249C591.973 459.952 585.412 454.96 577.969 451.678C578.437 451.194 578.93 450.737 579.438 450.293C582.305 451.608 585.05 453.175 587.64 454.973C596.906 461.374 603.864 470.585 607.483 481.244C610.715 490.915 611.118 501.306 608.647 511.197C609.159 510.862 609.674 510.518 610.175 510.176C619.693 503.762 628.464 496.058 635.072 486.611C640.77 478.627 644.417 469.365 645.691 459.641C646.957 449.019 644.297 438.573 639.552 429.095C634.312 418.955 627.709 409.578 619.926 401.226C612.11 392.643 603.272 385.049 593.609 378.612C593.391 378.465 593.239 378.24 593.182 377.984C593.126 377.727 593.17 377.459 593.306 377.235C593.409 377.03 593.59 376.875 593.807 376.802C593.918 376.774 594.033 376.771 594.145 376.794C594.257 376.816 594.362 376.864 594.453 376.933C595.646 377.728 596.828 378.531 597.997 379.357C607.727 386.243 616.565 394.31 624.305 403.374C631.785 412.11 638.592 421.816 643.147 432.419Z" fill="white"/>
<path d="M434.846 32.4545C443.049 32.4545 449.699 25.8087 449.699 17.6106C449.699 9.41248 443.049 2.7666 434.846 2.7666C426.643 2.7666 419.993 9.41248 419.993 17.6106C419.993 25.8087 426.643 32.4545 434.846 32.4545Z" fill="#F1F1F1"/>
<path d="M619.538 231.102C624.539 231.102 628.593 227.05 628.593 222.052C628.593 217.054 624.539 213.002 619.538 213.002C614.536 213.002 610.482 217.054 610.482 222.052C610.482 227.05 614.536 231.102 619.538 231.102Z" fill="#F1F1F1"/>
<path d="M354.51 255.933C359.511 255.933 363.565 251.881 363.565 246.883C363.565 241.884 359.511 237.833 354.51 237.833C349.508 237.833 345.454 241.884 345.454 246.883C345.454 251.881 349.508 255.933 354.51 255.933Z" fill="#F1F1F1"/>
<path d="M359.623 514H675.172C675.391 514 675.602 513.913 675.757 513.758C675.913 513.602 676 513.392 676 513.172C676 512.953 675.913 512.742 675.757 512.587C675.602 512.432 675.391 512.345 675.172 512.345H359.623C359.403 512.345 359.192 512.432 359.037 512.587C358.882 512.742 358.794 512.953 358.794 513.172C358.794 513.392 358.882 513.602 359.037 513.758C359.192 513.913 359.403 514 359.623 514Z" fill="#CBCBCB"/>
<path d="M640.349 79.9845C640.763 77.0446 640.084 74.0549 638.44 71.582C636.796 69.1091 634.302 67.3248 631.429 66.5671C628.557 65.8094 625.506 66.1311 622.855 67.4711C620.204 68.8112 618.137 71.0765 617.046 73.8378L591.44 103.175L598.953 124.146L624.705 89.8668C626.385 90.4048 628.163 90.568 629.914 90.3449C631.664 90.1218 633.344 89.5179 634.836 88.5758C636.327 87.6336 637.594 86.376 638.546 84.8916C639.499 83.4073 640.114 81.7322 640.349 79.9845Z" fill="#FFB7B7"/>
<path d="M534.208 194.135L619.207 103.479L607.742 85.2627L501.132 175.369L534.208 194.135Z" fill="#3F3D56"/>
<path d="M515.238 139.053C531.704 139.053 545.053 125.713 545.053 109.256C545.053 92.7996 531.704 79.459 515.238 79.459C498.771 79.459 485.422 92.7996 485.422 109.256C485.422 125.713 498.771 139.053 515.238 139.053Z" fill="#2F2E41"/>
<path d="M517.634 92.4233C524.05 85.9213 531.814 80.9038 540.38 77.7241C545.878 75.6884 551.862 74.4307 557.61 75.5868C563.359 76.7428 568.795 80.7169 570.398 86.3533C571.71 90.9622 570.356 95.9246 568.321 100.263C566.286 104.602 563.569 108.625 561.923 113.125C560.244 117.718 559.739 122.656 560.454 127.493C561.169 132.329 563.081 136.911 566.018 140.821C568.954 144.732 572.821 147.848 577.268 149.886C581.714 151.924 586.6 152.82 591.481 152.493C585.833 153.249 580.627 155.902 575.107 157.314C569.586 158.726 563.07 158.63 558.968 154.677C554.627 150.496 554.54 143.696 554.75 137.674C555.062 128.723 555.374 119.771 555.686 110.82C555.845 106.255 555.981 101.543 554.334 97.2824C552.686 93.0216 548.771 89.2905 544.201 89.3293C540.737 89.3586 537.671 91.4558 534.893 93.524C532.115 95.5923 529.175 97.7989 525.724 98.1065C522.274 98.4141 518.334 95.8622 518.592 92.4099L517.634 92.4233Z" fill="#2F2E41"/>
<path d="M401.996 309.329C399.133 310.124 396.079 309.842 393.411 308.536C390.742 307.23 388.646 304.992 387.519 302.245C386.392 299.498 386.313 296.433 387.296 293.632C388.279 290.83 390.256 288.486 392.853 287.044L418.611 257.84L440.397 262.543L409.755 292.538C410.508 294.132 410.903 295.873 410.91 297.636C410.917 299.399 410.538 301.143 409.798 302.744C409.058 304.345 407.976 305.764 406.628 306.902C405.28 308.04 403.699 308.868 401.996 309.329Z" fill="#FFB7B7"/>
<path d="M486.739 204.776L422.54 285.311L402.971 276.332L478.43 158.928L486.739 204.776Z" fill="#3F3D56"/>
<path d="M435.514 447.959L420.214 447.719L422.054 499.836H435.512L435.514 447.959Z" fill="#FFB7B7"/>
<path d="M438.945 495.445L412.441 495.444H412.44C407.96 495.444 403.664 497.222 400.497 500.388C397.329 503.553 395.55 507.846 395.549 512.323V512.872L438.944 512.873L438.945 495.445Z" fill="#2F2E41"/>
<path d="M536.819 434.136L520.104 444.86L553.538 485.057L564.863 477.791L536.819 434.136Z" fill="#FFB7B7"/>
<path d="M565.377 472.242L543.074 486.552L543.074 486.552C539.304 488.971 536.651 492.787 535.697 497.161C534.743 501.535 535.566 506.109 537.986 509.876L538.283 510.338L574.799 486.908L565.377 472.242Z" fill="#2F2E41"/>
<path d="M542.773 274.994C542.773 274.994 505.636 151.727 493.702 150.062C481.767 148.396 462.538 181.691 462.538 181.691C437.606 213.481 411.897 316.457 411.897 316.457C411.897 316.457 454.755 319.137 486.083 335.795C517.412 352.452 554.384 334.952 554.384 334.952L542.773 274.994Z" fill="#3F3D56"/>
<path opacity="0.1" d="M542.773 274.994C542.773 274.994 505.636 151.727 493.702 150.062C481.767 148.396 467.422 182.028 467.422 182.028C454.998 233.346 411.897 316.457 411.897 316.457C411.897 316.457 454.755 319.137 486.083 335.795C517.412 352.452 554.384 334.951 554.384 334.951L542.773 274.994Z" fill="black"/>
<path d="M512.305 238.114V300.054L519.599 389.78L556.041 457.651L538.648 470.067L488.955 405.506L469.301 341.402L438.434 483.31L415.244 481.654L431.35 284.902L461.912 229.521L512.305 238.114Z" fill="#2F2E41"/>
<path d="M474.862 178.203C463.267 189.791 474.034 202.206 474.034 202.206L460.782 232.003L512.96 246.074L531.194 164.647L518.771 151.404C493.924 150.576 493.911 150.061 493.911 150.061C489.558 154.319 474.862 178.203 474.862 178.203Z" fill="#8731AF"/>
<path d="M533.295 156.211C530.925 154.463 528.232 153.202 525.371 152.501C522.51 151.801 519.539 151.674 516.629 152.129C513.719 152.585 510.928 153.612 508.418 155.153C505.909 156.694 503.73 158.717 502.008 161.105C488.89 179.358 476.762 208.831 493.473 245.59C520.306 304.612 543.657 334.827 553.15 334.824C553.565 334.828 553.977 334.763 554.37 334.633C560.213 332.651 568.662 322.77 570.191 314.062C570.739 310.945 570.609 306.604 566.879 303.623C556.165 295.06 536.932 268.395 530.933 233.299C527.617 213.906 534.047 196.241 540.025 184.837C542.55 180.119 543.288 174.649 542.105 169.43C540.922 164.211 537.897 159.593 533.584 156.423L533.295 156.211Z" fill="#3F3D56"/>
<path d="M516.771 136.126C527.407 130.315 531.316 116.988 525.502 106.359C519.688 95.7295 506.352 91.8231 495.716 97.6336C485.08 103.444 481.171 116.771 486.985 127.401C492.8 138.03 506.135 141.936 516.771 136.126Z" fill="#FFB7B7"/>
<path d="M475.377 115.221H507.069L507.394 110.674L509.019 115.221H513.899L514.543 106.209L517.764 115.221H527.206V114.775C527.199 108.5 524.702 102.485 520.263 98.0485C515.823 93.6118 509.804 91.1162 503.526 91.1091H499.058C492.779 91.1162 486.76 93.6118 482.321 98.0484C477.882 102.485 475.384 108.5 475.377 114.775V115.221Z" fill="#2F2E41"/>
<path d="M522.418 131.566L535.943 127.18V94.3574H510.397L511.03 94.9885C519.829 103.771 529.616 134.931 522.418 131.566Z" fill="#2F2E41"/>
</g>
<defs>
<clipPath id="clip0_7_102">
<rect width="676" height="514" fill="white"/>
</clipPath>
</defs>
</svg>
